<?xml version="1.0" standalone="no"?><!DOCTYPE svg PUBLIC "-//W3C//DTD SVG 1.1//EN" "http://www.w3.org/Graphics/SVG/1.1/DTD/svg11.dtd"><svg t="1604040549290" class="icon" viewBox="0 0 1024 1024" version="1.1" xmlns="http://www.w3.org/2000/svg" p-id="3085" width="32" height="32" xmlns:xlink="http://www.w3.org/1999/xlink"><defs><style type="text/css"></style></defs><path d="M602.053 488.868c-2.152-7.884-5.311-15.277-9.132-22.251 53.812-155.537 364.722 17.271 405.338-102.057C1052.479 116.341 827.438 0 734.513 0 488.457 12.953 483.808 320.461 488.954 422.104c-7.884 1.993-15.284 5.152-22.417 9.056-155.461-53.812 17.436-364.809-101.905-405.337C116.424-28.484 0 196.479 0 289.568c12.953 246.055 320.374 250.704 422.189 245.559a90.743 90.743 0 0 0 8.966 22.257C377.42 712.92 66.51 540.106 25.74 659.44-28.402 907.653 196.473 1024 289.653 1024c245.967-12.959 250.616-320.384 245.47-422.109 7.973-1.993 15.36-5.063 22.25-9.049 155.627 53.81-17.27 364.802 101.982 405.329C907.652 1052.396 1024 827.516 1024 734.343c-12.953-245.972-320.297-250.62-421.947-245.475z m-90.009 89.607c-36.706 0-66.446-29.81-66.446-66.516s29.74-66.356 66.446-66.356c36.694 0 66.345 29.65 66.345 66.356s-29.651 66.516-66.345 66.516z" p-id="3086"></path></svg>