<?xml version="1.0" standalone="no"?><!DOCTYPE svg PUBLIC "-//W3C//DTD SVG 1.1//EN" "http://www.w3.org/Graphics/SVG/1.1/DTD/svg11.dtd"><svg t="1603957687796" class="icon" viewBox="0 0 1024 1024" version="1.1" xmlns="http://www.w3.org/2000/svg" p-id="3018" width="32" height="32" xmlns:xlink="http://www.w3.org/1999/xlink"><defs><style type="text/css"></style></defs><path d="M928 1024h-768A96 96 0 0 1 64 928v-832A96 96 0 0 1 160 0h704A96 96 0 0 1 960 96v896a32 32 0 0 1-32 32zM160 64a32 32 0 0 0-32 32v832a32 32 0 0 0 32 32H896V96a32 32 0 0 0-32-32z" p-id="3019"></path><path d="M288 576h448v64h-448zM288 704h448v64h-448zM576 461.44l-128-128-128 128-45.44-45.44L448 242.56l128 128 128-128 45.44 45.44L576 461.44z" p-id="3020"></path></svg>