<?xml version="1.0" standalone="no"?><!DOCTYPE svg PUBLIC "-//W3C//DTD SVG 1.1//EN" "http://www.w3.org/Graphics/SVG/1.1/DTD/svg11.dtd"><svg t="1603957604539" class="icon" viewBox="0 0 1024 1024" version="1.1" xmlns="http://www.w3.org/2000/svg" p-id="4450" width="32" height="32" xmlns:xlink="http://www.w3.org/1999/xlink"><defs><style type="text/css"></style></defs><path d="M158.464 824.064a38.4 38.4 0 0 1 38.4 38.4V985.6a38.4 38.4 0 0 1-38.4 38.4H70.4a38.4 38.4 0 0 1-38.4-38.4v-123.136a38.4 38.4 0 0 1 38.4-38.4h88.064z m265.536-204.992a38.4 38.4 0 0 1 38.4 38.4V985.6a38.4 38.4 0 0 1-38.4 38.4H331.776a38.4 38.4 0 0 1-38.4-38.4v-328.128a38.4 38.4 0 0 1 38.4-38.4h92.16z m264.128 78.08a38.4 38.4 0 0 1 38.4 38.4V985.6a38.4 38.4 0 0 1-38.4 38.4h-90.88a38.4 38.4 0 0 1-38.4-38.4v-250.112a38.4 38.4 0 0 1 38.4-38.4h90.88z m265.472-198.4a38.4 38.4 0 0 1 38.4 38.4V985.6a38.4 38.4 0 0 1-38.4 38.4h-92.16a38.4 38.4 0 0 1-38.4-38.4V537.152a38.4 38.4 0 0 1 38.4-38.4h92.16zM992 0v197.504l-75.2-73.536-260.672 299.264a19.2 19.2 0 0 1-27.904 1.152l-197.76-192.896a19.2 19.2 0 0 0-26.112-0.64l-302.72 267.328a19.2 19.2 0 0 1-27.072-1.728l-1.024-1.28-30.976-41.856a19.2 19.2 0 0 1 2.816-25.856l361.6-315.456a19.2 19.2 0 0 1 25.792 0.448l195.84 182.464a19.2 19.2 0 0 0 27.264-1.152L853.12 76.16 776.832 0H992z" p-id="4451"></path></svg>